# xmcd
#
# Track frame offsets: 
#        150
#        13889
#        28391
#        42341
#        56211
#        66190
#        74273
#        84973
#        104334
#        119252
#        130151
#        138282
#        158849
#        168480
#        175502
#        187912
#        201099
#        214413
#        227489
#        240397
#        253809
#        267137
#        279756
#        287555
#        295244
#        307778
#        318830
#        330913
#
# Disc length: 4559 seconds
#
# Revision: 0
# Processed by: cddbd v1.5.2PL0 Copyright (c) Steve Scherf et al.
# Submitted via: ExactAudioCopyFreeDBPlugin 1.0
#
DISCID=8b11cd1c
DTITLE=Lead Belly - Rock Island Line CD2 (Compilation Blues Characters
DTITLE=)
DYEAR=1900
DGENRE=Blues
TTITLE0=New York City
TTITLE1=Worried blues
TTITLE2=Don't you love your daddy no more?
TTITLE3=You can't lose-a me Cholly
TTITLE4=Skip to my Lou
TTITLE5=On a Monday
TTITLE6=Ain't you glad
TTITLE7=John Hardy
TTITLE8=In New Orleans
TTITLE9=Jim Crow blues
TTITLE10=Army life
TTITLE11=Mr. Hitler
TTITLE12=Corn bread rough
TTITLE13=Out on the western plains
TTITLE14=Ella speed
TTITLE15=Rock island line
TTITLE16=Tell me baby
TTITLE17=Irene (Goodnight Irene)
TTITLE18=On a Christmas day
TTITLE19=Backwater blues
TTITLE20=Sweet Mary blues
TTITLE21=Grasshoppers in my pillow
TTITLE22=Laura
TTITLE23=Blind lemon song
TTITLE24=The Gallis pole
TTITLE25=John Henry
TTITLE26=Boll weevil
TTITLE27=It was early one mornin'
EXTD=
EXTT0=
EXTT1=
EXTT2=
EXTT3=
EXTT4=
EXTT5=
EXTT6=
EXTT7=
EXTT8=
EXTT9=
EXTT10=
EXTT11=
EXTT12=
EXTT13=
EXTT14=
EXTT15=
EXTT16=
EXTT17=
EXTT18=
EXTT19=
EXTT20=
EXTT21=
EXTT22=
EXTT23=
EXTT24=
EXTT25=
EXTT26=
EXTT27=
PLAYORDER=
